<svg xmlns="http://www.w3.org/2000/svg" xmlns:xlink="http://www.w3.org/1999/xlink" id="Layer_1" x="0px" y="0px" viewBox="0 0 41 55" style="enable-background:new 0 0 41 55;" xml:space="preserve" width="41"  height="55" ><style type="text/css" fill="#FFFFFF">	.st0{clip-path:url(#SVGID_2_);}	.st1{fill:#FFFFFF;}</style><g fill="#FFFFFF">	<defs>		<rect id="SVGID_1_" width="40.4" height="55"></rect>	<rect id="SVGID_1_" width="64.6" height="55"></rect></defs>	<clipPath id="SVGID_2_" fill="#FFFFFF">		<use xlink:href="#SVGID_1_" style="overflow:visible;"></use>	</clipPath>	<g class="st0" stroke="#FFFFFF" fill="#FFFFFF">		<path class="st1" d="M20.8,28.8c-0.7,0.4-1.3,0.4-2,0c-2.6-1.4-5.7-0.5-7.4,1.9c-1.6,2.4-1.2,5.6,1,7.5c1.9,1.6,2.8,3.8,2.9,6.2   c0,3.5,0,7.1,0,10.6H17c0-3.5,0-7,0-10.5c0-3-1.2-5.6-3.4-7.6c-1.6-1.5-1.9-3.7-0.7-5.4c1.2-1.7,3.5-2.2,5.3-1.1   c1,0.6,2.1,0.6,3.1,0c1.8-1.1,4.1-0.6,5.3,1.1c1.2,1.7,1,4-0.6,5.4c-2.3,2-3.4,4.6-3.4,7.7c0,3.5,0,6.9,0,10.4h1.7   c0-3.4,0-6.7,0-10.1c0-2.7,0.9-5,3-6.8c2.1-1.9,2.5-5.1,0.8-7.5C26.5,28.2,23.3,27.4,20.8,28.8z" stroke="#FFFFFF" fill="#FFFFFF"></path>		<path class="st1" d="M19,26.1c0.6-0.3,1.1-0.3,1.6,0c2.6,1.5,5.8,0.7,7.5-1.7c1.7-2.4,1.3-5.7-0.9-7.6c-1.9-1.7-2.8-3.8-2.9-6.2   c0-3.5,0-7.1,0-10.6h-1.7c0,3.4,0,6.8,0,10.2c0,3.1,1.1,5.8,3.5,7.9c1.7,1.5,1.8,4,0.3,5.7c-1.3,1.4-3.3,1.8-5,0.8   c-1.1-0.6-2.2-0.6-3.3,0c-1.9,1.1-4.4,0.4-5.5-1.5c-0.9-1.7-0.6-3.7,0.8-5c2.4-2.1,3.5-4.7,3.5-7.9c0-3.4,0-6.8,0-10.3h-1.7   c0,3.5,0,7.1,0,10.6c0,2.5-1,4.6-2.8,6.2c-2.2,2-2.7,5.2-1,7.6C13.2,26.8,16.4,27.6,19,26.1z" stroke="#FFFFFF" fill="#FFFFFF"></path>		<path class="st1" d="M31.5,25.9c2.4-1,4.8-2,7.2-3c0.9-0.4,1-0.7,0.5-1.6C39,21,38.7,20.9,38.4,21c-0.2,0.1-0.4,0.2-0.5,0.3   c-2.2,1.5-4.3,2.9-6.5,4.4c-0.1,0.1-0.2,0.2-0.4,0.3l0,0.1C31.2,26,31.4,25.9,31.5,25.9z" stroke="#FFFFFF" fill="#FFFFFF"></path>		<path class="st1" d="M39.6,25.1c-0.2,0-0.4,0-0.6,0.1c-1.5,0.3-3,0.6-4.4,0.9L31,26.8l0,0.1c0.2,0,0.4,0,0.5,0   c2.6,0,5.2,0,7.7,0.1c0.9,0,1.2-0.2,1.1-1.2C40.3,25.3,40.1,25.1,39.6,25.1z" stroke="#FFFFFF" fill="#FFFFFF"></path>		<path class="st1" d="M39.2,29.4c-2.6-0.6-5.1-1.2-7.7-1.8c-0.1,0-0.3,0-0.4-0.1l0,0.1c0.1,0.1,0.2,0.1,0.3,0.2   c2.5,1.1,4.9,2.3,7.4,3.4c0.2,0.1,0.3,0.2,0.5,0.1c0.2,0,0.5-0.1,0.6-0.2C40.4,30.3,40.2,29.6,39.2,29.4z" stroke="#FFFFFF" fill="#FFFFFF"></path>		<path class="st1" d="M1.7,23.3c2.4,1,4.8,2,7.2,3c0.2,0.1,0.3,0.1,0.5,0.2l0-0.1c-0.1-0.1-0.2-0.2-0.4-0.3   c-2.2-1.5-4.3-2.9-6.5-4.4c-0.2-0.1-0.3-0.2-0.5-0.3c-0.3-0.1-0.6-0.1-0.8,0.3C0.7,22.6,0.8,22.9,1.7,23.3z" stroke="#FFFFFF" fill="#FFFFFF"></path>		<path class="st1" d="M1.4,25.6c-0.2,0-0.4-0.1-0.6-0.1c-0.5,0-0.7,0.2-0.8,0.7c-0.1,0.9,0.1,1.2,1.1,1.2c2.6,0,5.2,0,7.7-0.1   c0.2,0,0.4,0,0.5,0l0-0.1l-3.6-0.7C4.3,26.2,2.8,25.9,1.4,25.6z" stroke="#FFFFFF" fill="#FFFFFF"></path>		<path class="st1" d="M8.9,28c-2.6,0.6-5.1,1.2-7.7,1.8c-1,0.2-1.2,0.9-0.6,1.6c0.1,0.1,0.4,0.2,0.6,0.2c0.2,0,0.3-0.1,0.5-0.1   c2.5-1.1,4.9-2.3,7.4-3.4c0.1,0,0.2-0.1,0.3-0.2l0-0.1C9.2,28,9,28,8.9,28z" stroke="#FFFFFF" fill="#FFFFFF"></path>	</g></g></svg>