<svg xmlns="http://www.w3.org/2000/svg" xmlns:xlink="http://www.w3.org/1999/xlink" id="Layer_1" x="0px" y="0px" viewBox="0 0 50 55" style="enable-background:new 0 0 50 55;" xml:space="preserve" width="50"  height="55" ><style type="text/css" fill="#FFFFFF">	.st0{clip-path:url(#SVGID_2_);}	.st1{fill:#FFFFFF;}</style><g fill="#FFFFFF">	<defs>		<rect id="SVGID_1_" width="49.6" height="55"></rect>	<rect id="SVGID_1_" width="64.6" height="55"></rect></defs>	<clipPath id="SVGID_2_" fill="#FFFFFF">		<use xlink:href="#SVGID_1_" style="overflow:visible;"></use>	</clipPath>	<g class="st0" stroke="#FFFFFF" fill="#FFFFFF">		<path class="st1" d="M49.6,21.2c0.1-2.6-0.3-5.3-1-7.8c-0.9-3.2-2.8-5.9-5.5-7.9C38,1.4,33.2-0.2,27.5,0c-3,0.2-5.9,0.6-8.9,1.3   c-4.1,0.8-7.1,2.3-9.2,4.4c-1.6,1.7-2.9,3.8-3.7,6c-0.3,1-0.6,2-0.8,3l-0.1,0.3c-0.2,0.7-0.5,1.4-0.8,2.1   c-0.2,0.4-0.4,0.8-0.5,1.3c-0.2,0.5-0.3,1-0.3,1.5c0.2,0.8,0.7,1.5,1.3,2c0.5,0.4,0.7,0.7,0.8,1c0,0.1-0.1,0.3-0.2,0.4   c-1.1,2.3-2.4,4.5-4,6.5c-0.7,0.8-1.3,1.7-1.2,2.7c0.2,0.7,0.7,1.3,1.3,1.7c0.3,0.2,0.6,0.4,1,0.5c0.4,0.2,1.1,0.5,1.1,0.8   c0.1,0.3,0,0.6-0.1,0.9c-0.1,0.3-0.3,0.5-0.4,0.8c-0.3,0.6-0.9,1.6,0,2.3C3,39.8,3.4,40,3.7,40.3c-0.2,0.4-0.3,0.9-0.3,1.3   c0,0.4,0.2,0.7,0.5,0.9c0.2,0.1,0.4,0.3,0.6,0.4c0.5,0.3,0.8,0.5,0.8,0.7c0,0.4,0,0.8-0.1,1.1c-0.1,0.2-0.1,0.5-0.1,0.7   c-0.1,0.8,0,1.7,0.3,2.5c0.5,1.7,2.2,2.8,4,2.4c2.6-0.6,5.2-1.4,7.7-2.3c2.1,1.2,3.4,4.9,3.7,6.3c0.1,0.4,0.5,0.7,0.9,0.7l23-0.1   c0.3,0,0.6-0.1,0.7-0.4c0.2-0.2,0.2-0.5,0.1-0.8c-0.2-0.6-0.5-1.2-0.9-1.8c-0.2-0.3-0.4-0.6-0.6-1c-0.4-0.8-0.8-1.7-1-2.6   c-0.5-1.8-0.9-3.6-1.1-5.4c-0.3-2.7,0.1-5.5,1.2-8.1c0.7-1.4,1.5-2.7,2.5-3.9c0.5-0.7,1.1-1.5,1.6-2.3   C48.8,26.4,49.6,23.8,49.6,21.2z M44.3,29.9c-1.1,1.3-2,2.8-2.7,4.3c-1.2,2.8-1.7,5.9-1.3,9c0.2,1.9,0.6,3.9,1.1,5.7   c0.3,1,0.7,2,1.1,2.9c0.2,0.4,0.4,0.8,0.7,1.2l0.1,0.1l-20.8,0.1c-0.6-2.2-1.7-4.2-3.2-5.9c0.2-0.1,0.5-0.2,0.7-0.2   c0.7-0.2,1.2-0.4,1.5-0.5c3.9-1.2,5.9-3,5.8-5.3c0-0.5-0.4-0.9-0.9-0.9c-0.2,0-0.5,0.1-0.6,0.3c-0.2,0.2-0.3,0.4-0.3,0.7   c0,0.9-0.8,2.3-4.6,3.5c-0.3,0.1-0.8,0.3-1.5,0.5c-0.7,0.2-1.5,0.5-2.3,0.8c-2.6,0.9-5.2,1.7-7.9,2.4c-0.9,0.2-1.7-0.4-1.9-1.2   C7,46.8,6.9,46.2,7,45.7c0-0.2,0.1-0.4,0.1-0.6c0.2-0.6,0.2-1.3,0.1-2c-0.3-0.8-0.9-1.5-1.7-1.9l-0.2-0.1c0.1-0.2,0.2-0.4,0.4-0.6   c0.2-0.2,0.2-0.4,0.2-0.7c0-0.2-0.2-0.5-0.4-0.6c-0.2-0.2-0.7-0.6-1.1-0.9c0-0.1,0.1-0.2,0.1-0.3c0.1-0.3,0.3-0.5,0.5-0.9   c0.3-0.6,0.4-1.4,0.3-2c-0.2-1.1-1.3-1.7-2.1-2.1c-0.3-0.1-0.5-0.3-0.8-0.4c-0.2-0.1-0.4-0.3-0.5-0.4c0-0.1,0.1-0.5,0.9-1.3   c1.6-2.1,3-4.4,4.2-6.8c0.2-0.4,0.3-0.8,0.4-1.2c-0.1-0.9-0.6-1.8-1.3-2.3c-0.4-0.3-0.7-0.7-0.8-0.9c0-0.2,0.1-0.4,0.1-0.6   c0.2-0.4,0.3-0.8,0.5-1.2c0.4-0.8,0.7-1.6,0.9-2.4l0.1-0.3c0.2-0.9,0.5-1.9,0.8-2.8c0.7-2,1.8-3.8,3.3-5.4   c1.8-1.9,4.5-3.2,8.2-3.9c2.8-0.6,5.7-1,8.6-1.2c5.2-0.3,9.6,1.3,14.4,5.1c2.3,1.7,4,4.2,4.8,6.9c0.6,2.4,0.9,4.8,0.9,7.3   c0,2.3-0.7,4.6-2,6.6C45.4,28.5,44.8,29.2,44.3,29.9z" stroke="#FFFFFF" fill="#FFFFFF"></path>		<path class="st1" d="M18.5,15.6h0.9c0.5,0,0.9-0.4,0.9-0.9c0-0.5-0.4-0.9-0.9-0.9h-0.9c-1.5,0-2.8,1.2-2.8,2.8v0.9   c0,1.5,1.2,2.8,2.8,2.8h0.9c0.5,0,0.9-0.4,0.9-0.9s-0.4-0.9-0.9-0.9h-0.9c-0.5,0-0.9-0.4-0.9-0.9v-0.9   C17.5,16,17.9,15.6,18.5,15.6z" stroke="#FFFFFF" fill="#FFFFFF"></path>		<path class="st1" d="M24.9,12.8c-0.5,0-0.9,0.4-0.9,0.9v1.8c0,0.5-0.4,0.9-0.9,0.9h-0.9c-0.5,0-0.9,0.4-0.9,0.9   c0,0.5,0.4,0.9,0.9,0.9H23c1.5,0,2.8-1.2,2.8-2.8v-1.8C25.8,13.2,25.4,12.8,24.9,12.8z" stroke="#FFFFFF" fill="#FFFFFF"></path>		<path class="st1" d="M28.5,12.8v-0.9c0-1.5-1.2-2.8-2.8-2.8H24c-1.5,0-2.8,1.2-2.8,2.8v0.9c0,0.5,0.4,0.9,0.9,0.9s0.9-0.4,0.9-0.9   v-0.9c0-0.5,0.4-0.9,0.9-0.9h1.8c0.5,0,0.9,0.4,0.9,0.9v0.9c0,0.5,0.4,0.9,0.9,0.9S28.5,13.3,28.5,12.8z" stroke="#FFFFFF" fill="#FFFFFF"></path>		<path class="st1" d="M31.3,19.3h-0.9c-0.5,0-0.9-0.4-0.9-0.9v-0.9c0-0.5-0.4-0.9-0.9-0.9c-0.5,0-0.9,0.4-0.9,0.9v0.9   c0,1.5,1.2,2.8,2.8,2.8h0.9c0.5,0,0.9-0.4,0.9-0.9S31.8,19.3,31.3,19.3z" stroke="#FFFFFF" fill="#FFFFFF"></path>		<path class="st1" d="M35.9,16.5c0-0.5-0.4-0.9-0.9-0.9h-0.9c-0.5,0-0.9-0.4-0.9-0.9c0-0.5,0.4-0.9,0.9-0.9H35   c0.5,0,0.9-0.4,0.9-0.9c0-0.5-0.4-0.9-0.9-0.9h-0.9c-1.5,0-2.8,1.2-2.8,2.8c0,1.5,1.2,2.8,2.8,2.8H35C35.5,17.4,35.9,17,35.9,16.5   z" stroke="#FFFFFF" fill="#FFFFFF"></path>		<path class="st1" d="M38.6,16.5c-0.5,0-0.9,0.4-0.9,0.9v1.8c0,0.5-0.4,0.9-0.9,0.9h-0.9c-0.5,0-0.9,0.4-0.9,0.9   c0,0.5,0.4,0.9,0.9,0.9h0.9c1.5,0,2.8-1.2,2.8-2.8v-1.8C39.5,16.9,39.1,16.5,38.6,16.5z" stroke="#FFFFFF" fill="#FFFFFF"></path>		<path class="st1" d="M45.9,19.3C45.9,19.2,45.9,19.2,45.9,19.3c-0.1-1.7-0.4-3.3-0.8-4.9c-0.7-2.4-2.2-4.5-4.2-6   C36.8,5.1,33,3.7,28.7,3.7c-0.3,0-0.7,0-1,0c-0.3,0-0.6,0-0.9,0.1c0,0,0,0-0.1,0c0,0-0.1,0-0.1,0c-2.4,0.2-4.8,0.6-7.2,1.1   c-1,0.2-2.1,0.5-3.1,0.8c0,0,0,0-0.1,0c-1.5,0.5-3,1.4-4.1,2.5c-1.1,1.2-2,2.6-2.6,4.1c0,0,0,0.1,0,0.2c-0.1,0.2-0.1,0.3-0.2,0.4   c-0.3,0.8-0.7,2.7-0.8,2.9c-0.2,1-0.7,4.5,1.4,6.7c1.3,1.4,3.3,1.9,6,1.5L17,24c5.9-0.8,8.8-1.3,11.4,1.2c0.5,0.5,1,1,1.5,1.4   c-0.6,1.8-1.3,5.7,1.7,8c3.3,2.5,3.3,3.1,3.3,4.8c0,0.3,0.2,0.6,0.4,0.8c0.3,0.2,0.6,0.2,0.9,0c0.2-0.1,2.3-1.3,2.3-5.4   c0-2.3,1.7-4.2,3.3-5.8l0,0c0.9-0.6,1.7-1.4,2.3-2.3c0.7-1,1.1-2.2,1.4-3.4c0.1-0.1,0.1-0.3,0.1-0.4c0.1-0.6,0.2-1.2,0.2-1.8   C46,20.5,46,19.9,45.9,19.3C45.9,19.3,45.9,19.3,45.9,19.3z M36.8,34.8c0,0.8-0.1,1.5-0.3,2.3C36,36,35,34.9,32.8,33.2   c-1.8-1.4-1.7-3.6-1.3-5.2c1.7,1.4,3.8,2.1,6.1,2.2c0.4,0,0.7,0,1.1-0.1C37.5,31.4,36.8,33.1,36.8,34.8z M42.7,25.7   c-0.6,1-1.5,1.7-2.6,2.2c-1.7,0.5-3.5,0.5-5.2-0.1v-1.2c0-0.5,0.4-0.9,0.9-0.9h2.8c0.5,0,0.9-0.4,0.9-0.9c0-0.5-0.4-0.9-0.9-0.9   h-2.7c-1.5,0-2.8,1.2-2.8,2.8v0.3C31.9,26,30.8,25,29.7,24c-1.1-1.1-2.4-1.8-3.9-2.1v-0.7c0-0.5-0.4-0.9-0.9-0.9S24,20.6,24,21.1   v0.5c-2.4,0-4.8,0.2-7.2,0.7l-1.2,0.2c-0.6,0.1-1.1,0.1-1.7,0.1V22c0-0.5-0.4-0.9-0.9-0.9S12,21.5,12,22v0   c-0.3-0.2-0.6-0.4-0.9-0.6c-0.5-0.6-0.9-1.4-1-2.2h0.9c1.5,0,2.8-1.2,2.8-2.8c0-0.5-0.4-0.9-0.9-0.9S12,16,12,16.5   c0,0.5-0.4,0.9-0.9,0.9h-1c0-0.4,0.1-0.8,0.1-1.1c0.1-0.5,0.5-1.9,0.7-2.5h3c0.5,0,0.9-0.4,0.9-0.9s-0.4-0.9-0.9-0.9h-2.1   c0.5-0.9,1-1.7,1.7-2.4c0.6-0.7,1.4-1.2,2.3-1.6v1.2c0,1.5,1.2,2.8,2.8,2.8c0.5,0,0.9-0.4,0.9-0.9c0-0.5-0.4-0.9-0.9-0.9   s-0.9-0.4-0.9-0.9v-2C18.3,7,19,6.8,19.8,6.7c0.8-0.2,1.6-0.3,2.4-0.5v0.2c0,0.5,0.4,0.9,0.9,0.9c0.5,0,0.9-0.4,0.9-0.9V5.9   c0.6-0.1,1.2-0.2,1.8-0.2v0.7c0,0.5,0.4,0.9,0.9,0.9s0.9-0.4,0.9-0.9V5.5c0.1,0,0.1,0,0.2,0c0.6,0,1.1,0,1.7,0v3.6   c0,0.5,0.4,0.9,0.9,0.9h1.8c0.5,0,0.9-0.4,0.9-0.9c0-0.5-0.4-0.9-0.9-0.9h-0.9V5.7c1.6,0.3,3.2,0.8,4.6,1.5c0,0,0,0,0,0.1v2.8   c0,0.5,0.4,0.9,0.9,0.9c0.5,0,0.9-0.4,0.9-0.9V8.3c0.6,0.4,1.2,0.8,1.8,1.3v2.3c0,0.5-0.4,0.9-0.9,0.9c-0.5,0-0.9,0.4-0.9,0.9   c0,0.5,0.4,0.9,0.9,0.9c1.5,0,2.8-1.2,2.8-2.8v-0.6c0.9,1,1.6,2.3,2,3.6c0.3,1.1,0.5,2.3,0.6,3.5h-1.7c-0.5,0-0.9,0.4-0.9,0.9   c0,0.5,0.4,0.9,0.9,0.9h1.8c0,0.3,0,0.6,0,0.9c0,0.3,0,0.6-0.1,0.9h-1.8c-0.5,0-0.9,0.4-0.9,0.9s0.4,0.9,0.9,0.9h1.3   C43.4,24.5,43.1,25.1,42.7,25.7z" stroke="#FFFFFF" fill="#FFFFFF"></path>	</g></g></svg>