<svg xmlns="http://www.w3.org/2000/svg" xmlns:xlink="http://www.w3.org/1999/xlink" id="Layer_1" x="0px" y="0px" viewBox="0 0 50 55" style="enable-background:new 0 0 50 55;" xml:space="preserve" width="50"  height="55" ><style type="text/css" fill="#FFFFFF">	.st0{clip-path:url(#SVGID_2_);}	.st1{fill:#FFFFFF;}</style><g fill="#FFFFFF">	<defs>		<rect id="SVGID_1_" width="49.5" height="55"></rect>	<rect id="SVGID_1_" width="64.6" height="55"></rect></defs>	<clipPath id="SVGID_2_" fill="#FFFFFF">		<use xlink:href="#SVGID_1_" style="overflow:visible;"></use>	</clipPath>	<g class="st0" stroke="#FFFFFF" fill="#FFFFFF">		<path class="st1" d="M42.3,15.4c-1.6,0-2.9,1.3-2.9,2.9s1.3,2.9,2.9,2.9s2.9-1.3,2.9-2.9S43.9,15.4,42.3,15.4z M42.3,19.7   c-0.7,0-1.3-0.6-1.3-1.3c0-0.7,0.6-1.3,1.3-1.3c0.7,0,1.3,0.6,1.3,1.3C43.6,19.1,43.1,19.7,42.3,19.7z" stroke="#FFFFFF" fill="#FFFFFF"></path>		<path class="st1" d="M34.2,15.4c-1.6,0-2.9,1.3-2.9,2.9s1.3,2.9,2.9,2.9s2.9-1.3,2.9-2.9S35.8,15.4,34.2,15.4z M34.2,19.7   c-0.7,0-1.3-0.6-1.3-1.3c0-0.7,0.6-1.3,1.3-1.3c0.7,0,1.3,0.6,1.3,1.3C35.5,19.1,34.9,19.7,34.2,19.7z" stroke="#FFFFFF" fill="#FFFFFF"></path>		<path class="st1" d="M43.9,4.2H32.6c-0.7,0-1.4,0.6-1.4,1.4V11c0,0.7,0.6,1.4,1.4,1.4h3.9c0.4,0,0.8-0.4,0.8-0.8   c0-0.4-0.4-0.8-0.8-0.8h-3.6V5.8h10.8v4.9h-3.2c-0.4,0-0.8,0.4-0.8,0.8c0,0.4,0.4,0.8,0.8,0.8h3.5c0.7,0,1.4-0.6,1.4-1.4V5.6   C45.2,4.8,44.6,4.2,43.9,4.2z" stroke="#FFFFFF" fill="#FFFFFF"></path>		<path class="st1" d="M44.6,0H31.9C29.2,0,27,2.2,27,4.9v15.4c0,4.5,3.7,8.2,8.2,8.2v4.3H24c0.6-1.8,0.4-3.4,0.1-4.6   c-0.5-1.7-1.4-3.2-2.7-4.1c-0.8-0.6-1.8-0.7-2.7-0.3c-0.9,0.4-1.4,1.2-1.5,2.3c-0.3,2.7-1.1,4.4-2.4,5.4c-1.1,0.7-3.2,1.3-4.2,1.3   H8.5v-0.4c0-0.6-0.5-1.2-1.2-1.2H1.2c-0.6,0-1.2,0.5-1.2,1.2v7.8C0,40.6,0.4,41,0.8,41c0.4,0,0.8-0.4,0.8-0.8v-7.3h5.2v18.9H1.6   v-7.8c0-0.4-0.4-0.8-0.8-0.8c-0.4,0-0.8,0.4-0.8,0.8v8.2c0,0.6,0.5,1.2,1.2,1.2h6.2c0.6,0,1.2-0.5,1.2-1.2v-0.4h1.7   c1.4,0,2.1,0.5,3,1.2c1,0.8,2.2,1.7,4.5,1.9c0,0,0.1,0,0.1,0h7.5h6.8c1.4,0,2.2-0.6,2.6-1.1c0.6-0.6,0.9-1.4,0.9-2.3   c0-0.7-0.2-1.5-0.7-2.1c1.3-0.6,2-1.8,2-3.1c0-0.7-0.2-1.5-0.7-2.1c0.5-0.2,0.8-0.5,1.1-0.8c0.6-0.6,0.9-1.4,0.9-2.3   c0-0.6-0.2-1.2-0.5-1.8H41c2.3,0,3.5-1.7,3.5-3.4c0-1.6-1.1-3.2-3.2-3.4v-4.3c4.5,0,8.2-3.7,8.2-8.2V4.9C49.5,2.2,47.3,0,44.6,0z    M39.7,32.9c0,0.8-0.6,1.4-1.4,1.4c-0.8,0-1.4-0.6-1.4-1.4v-8.4h2.8V32.9z M33.5,52.8c-0.3,0.4-0.8,0.6-1.5,0.6h-6.8   c-1.3,0-1.9-0.9-1.9-1.8c0-0.5,0.2-0.9,0.5-1.2c0.3-0.4,0.8-0.6,1.5-0.6h6.8c1.3,0,1.9,0.9,1.9,1.8C34,52.1,33.8,52.5,33.5,52.8z    M33.3,48.2h-8.1c-1.3,0-1.9-0.9-1.9-1.8c0-0.5,0.2-0.9,0.5-1.2c0.3-0.4,0.8-0.6,1.5-0.6h8.1c1.3,0,1.9,0.9,1.9,1.8   C35.3,47.3,34.7,48.2,33.3,48.2z M36.5,41.3c0,0.9-0.6,1.8-1.9,1.8h-9.4c-1.3,0-1.9-0.9-1.9-1.8c0-0.5,0.2-0.9,0.5-1.2   c0.3-0.4,0.8-0.6,1.5-0.6h9.4C35.9,39.5,36.5,40.4,36.5,41.3z M42.9,36.1c0,0.9-0.6,1.8-1.9,1.8H25.2c-2.3,0-3.5,1.7-3.5,3.4   c0,1,0.4,1.9,1.2,2.6c-0.8,0.7-1.2,1.6-1.2,2.6s0.4,1.9,1.2,2.6c-0.1,0.1-0.2,0.2-0.3,0.3c-0.6,0.6-0.9,1.4-0.9,2.3   c0,0.6,0.2,1.2,0.5,1.8h-4.4c-1.8-0.2-2.7-0.9-3.6-1.6c-1-0.8-2-1.6-3.9-1.6H8.5V34.4h2.3c1,0,3.7-0.6,5.1-1.6   c1.8-1.3,2.8-3.4,3.1-6.6c0-0.4,0.2-0.8,0.6-1c0.3-0.1,0.7-0.1,1,0.2c2,1.4,3.1,4.8,1.6,7.8c-0.1,0.3-0.1,0.6,0,0.8   c0.2,0.2,0.4,0.4,0.7,0.4h12.8c0.5,1,1.5,1.6,2.7,1.6c1.2,0,2.2-0.7,2.7-1.6c0,0,0,0,0,0C42.3,34.4,42.9,35.2,42.9,36.1z    M47.9,20.2c0,3.6-3,6.6-6.6,6.6v-2.7c0-0.7-0.6-1.3-1.3-1.3h-3.5c-0.7,0-1.3,0.6-1.3,1.3v2.7c-3.6,0-6.6-3-6.6-6.6V4.9   c0-1.8,1.5-3.2,3.2-3.2h12.8c1.8,0,3.2,1.5,3.2,3.2L47.9,20.2z" stroke="#FFFFFF" fill="#FFFFFF"></path>	</g></g></svg>