<svg xmlns="http://www.w3.org/2000/svg" xmlns:xlink="http://www.w3.org/1999/xlink" id="Layer_1" x="0px" y="0px" viewBox="0 0 60 55" style="enable-background:new 0 0 60 55;" xml:space="preserve" width="60"  height="55" ><style type="text/css" fill="#FFFFFF">	.st0{fill:#FFFFFF;}</style><path class="st0" d="M0.9,31.2c0.5,0.1,1-0.1,1.2-0.5c0.2-0.4,0.2-0.9-0.1-1.3c-0.3-0.4-0.8-0.5-1.3-0.4C0.3,29.1,0,29.6,0,30.1 C0,30.6,0.4,31.1,0.9,31.2z" stroke="#FFFFFF" fill="#FFFFFF"></path><path class="st0" d="M45.1,25c-2.2-7.6-9.2-12.9-17.1-12.9h-0.1c-1.1,0-2.1,0.7-2.8,1.3c-0.3,0.3-0.7,0.4-1,0.6v0c0-0.2,0-0.4,0-0.6 V9.7c0-2.4,1.9-4.3,4.3-4.3c0.6,0,1.2-0.5,1.2-1.2c0-0.6-0.5-1.2-1.2-1.2c-2.4,0-4.5,1.3-5.7,3.3c-0.5-1.1-1.2-2.1-2-3 C16.1-1,7.9,0.1,7.6,0.2c-0.5,0.1-0.9,0.5-1,1c0,0.3-1.2,8.4,3.1,12.9c-0.9,0.4-1.7,1-2.5,1.6c-3,2.2-5.2,5.3-6.4,8.8 C0.6,25,1,25.7,1.6,25.9c0.6,0.2,1.3-0.1,1.5-0.7c2.1-6.4,8-10.8,14.8-10.8h0.1c0.2,0,0.4,0.1,0.5,0.2c0,0,0,0,0.1,0 c0.3,0.2,0.6,0.4,0.7,0.5c2.1,1.7,5.2,1.7,7.3,0c0.2-0.2,0.9-0.7,1.3-0.7h0.1c6.8,0,12.7,4.3,14.7,10.7c-7.5,0.8-13.3,7.2-13.3,14.9 c0,4.3,1.8,8.2,4.7,10.9c-2.3,1.5-4.5,1.8-6.4,1.8h-0.1c0,0-0.1,0-0.2,0c-1.8,0.1-3.3-0.3-4.2-0.5c-0.2-0.1-0.5-0.1-0.7,0 c-0.9,0.3-2.3,0.6-4.2,0.5c-0.1,0-0.1,0-0.2,0h-0.1c-2.5,0-7.6,0-12-8.9C4.7,41.1,3.6,38,3,35c-0.1-0.6-0.8-1-1.4-0.9 c-0.6,0.1-1,0.8-0.9,1.4c0.7,3.1,1.9,6.4,3.3,9.3c4.5,9,9.8,10.1,14,10.1h0.1c0,0,0,0,0,0h0h0c1.6,0.1,3.2-0.1,4.6-0.5 c1.3,0.4,2.7,0.5,4.1,0.5c0.2,0,0.4,0,0.6,0h0h0c0,0,0,0,0,0h0.1c2.3,0,5.2-0.3,8.2-2.6c2.4,1.6,5.2,2.6,8.3,2.6 c8.2,0,14.9-6.7,14.9-15C59.1,32,52.9,25.4,45.1,25z M19.8,12.7l-5.5-6.4c-0.4-0.5-1.1-0.5-1.6-0.1c-0.5,0.4-0.5,1.1-0.1,1.6 l3.7,4.3c-1.4,0.1-2.8,0.4-4.2,0.9c-0.2-0.2-0.4-0.3-0.6-0.5C8.6,9.6,8.7,4.4,8.8,2.4c2.1-0.1,7.3-0.2,10.2,2.7 c2.4,2.4,2.8,6.5,2.8,8.9c-0.4-0.1-0.7-0.3-1-0.6C20.4,13.1,20.1,12.9,19.8,12.7z M18.2,55C18.2,55,18.2,55,18.2,55L18.2,55z  M27.5,55C27.5,55,27.5,55,27.5,55L27.5,55z M44.2,52.7c-6.9,0-12.6-5.7-12.6-12.7c0-7,5.6-12.7,12.6-12.7S56.8,33,56.8,40 C56.8,47,51.2,52.7,44.2,52.7z" stroke="#FFFFFF" fill="#FFFFFF"></path><path class="st0" d="M49.8,36h-1.6v-1.6c0-1.4-1.1-2.6-2.6-2.6h-2.8c-1.4,0-2.6,1.1-2.6,2.6V36h-1.6c-1.4,0-2.6,1.1-2.6,2.6v2.8 c0,1.4,1.1,2.6,2.6,2.6h1.6v1.6c0,1.4,1.1,2.6,2.6,2.6h2.8c1.4,0,2.6-1.1,2.6-2.6v-1.6h1.6c1.4,0,2.6-1.1,2.6-2.6v-2.8 C52.3,37.2,51.2,36,49.8,36z M50,41.4c0,0.1-0.1,0.3-0.2,0.3H47c-0.6,0-1.2,0.5-1.2,1.2v2.8c0,0.1-0.1,0.3-0.2,0.3h-2.8 c-0.1,0-0.2-0.1-0.2-0.3v-2.8c0-0.6-0.5-1.2-1.2-1.2h-2.7c-0.1,0-0.2-0.1-0.2-0.3v-2.8c0-0.1,0.1-0.3,0.2-0.3h2.7 c0.6,0,1.2-0.5,1.2-1.2v-2.8c0-0.1,0.1-0.3,0.2-0.3h2.8c0.1,0,0.2,0.1,0.2,0.3v2.8c0,0.6,0.5,1.2,1.2,1.2h2.7c0.1,0,0.2,0.1,0.2,0.3 V41.4z" stroke="#FFFFFF" fill="#FFFFFF"></path></svg>